<svg width="41" height="40" viewBox="0 0 41 40" fill="none" xmlns="http://www.w3.org/2000/svg">
<path fill-rule="evenodd" clip-rule="evenodd" d="M40.1529 20C40.1529 31.0457 31.1986 40 20.1529 40C9.10716 40 0.152859 31.0457 0.152859 20C0.152859 8.95431 9.10716 0 20.1529 0C31.1986 0 40.1529 8.95431 40.1529 20ZM16.6562 15.9245V12.5703C16.6562 12.5579 16.6562 12.544 16.6561 12.5287C16.6534 11.7921 16.6388 7.8516 21.8285 7.85184H25.5679V12.1218H22.8175C22.2734 12.1218 21.7233 12.6855 21.7233 13.1043V15.909H25.5622C25.4087 18.059 25.0914 20.0262 25.0914 20.0262H21.7041V32.2137H16.6562V20.0262H14.1989V15.9245H16.6562Z" fill="white"/>
</svg>
