<svg width="40" height="40" viewBox="0 0 40 40" fill="none" xmlns="http://www.w3.org/2000/svg">
<path d="M20 23.6182C18.0016 23.6182 16.3816 21.9984 16.3816 20C16.3816 18.0016 18.0016 16.3816 20 16.3816C21.9984 16.3816 23.6182 18.0015 23.6182 20C23.6182 21.9984 21.9984 23.6182 20 23.6182Z" fill="white"/>
<path fill-rule="evenodd" clip-rule="evenodd" d="M29.1445 24.6272C29.1445 27.122 27.122 29.1445 24.6272 29.1445H15.3729C12.878 29.1445 10.8555 27.122 10.8555 24.6272V15.3729C10.8555 12.878 12.878 10.8555 15.3729 10.8555H24.6272C27.122 10.8555 29.1445 12.8781 29.1445 15.3729V24.6272ZM20 14.0783C16.7348 14.0783 14.0783 16.7348 14.0783 20C14.0783 23.2649 16.7348 25.9215 20 25.9215C23.2652 25.9215 25.9215 23.2652 25.9215 20C25.9215 16.7348 23.2652 14.0783 20 14.0783ZM25.9328 15.542C26.7165 15.542 27.3518 14.9066 27.3518 14.123C27.3518 13.3391 26.7166 12.704 25.9328 12.704C25.1492 12.704 24.5138 13.3393 24.5138 14.123C24.5138 14.9066 25.1492 15.542 25.9328 15.542Z" fill="white"/>
<path fill-rule="evenodd" clip-rule="evenodd" d="M40 20C40 31.0457 31.0457 40 20 40C8.9543 40 0 31.0457 0 20C0 8.9543 8.9543 0 20 0C31.0457 0 40 8.9543 40 20ZM24.6271 8.55219H15.3728C11.6119 8.55219 8.55219 11.6119 8.55219 15.3728V24.6271C8.55219 28.3879 11.6119 31.4478 15.3729 31.4478H24.6272C28.388 31.4478 31.4479 28.388 31.4479 24.6271V15.3728C31.4478 11.6119 28.388 8.55219 24.6271 8.55219Z" fill="white"/>
</svg>
