<svg width="40" height="40" viewBox="0 0 40 40" fill="none" xmlns="http://www.w3.org/2000/svg">
<path d="M20 0C8.95468 0 0 8.95427 0 20C0 31.0457 8.95468 40 20 40C31.0453 40 40 31.0457 40 20C40 8.95427 31.0453 0 20 0ZM33.627 26.6758C33.2808 28.1776 32.0524 29.2853 30.5739 29.4502C27.0723 29.8418 23.5286 29.8439 19.9992 29.8418C16.4698 29.8439 12.9252 29.8418 9.42281 29.4502C7.94435 29.2853 6.71673 28.1776 6.37136 26.6758C5.87908 24.5365 5.87908 22.2019 5.87908 20C5.87908 17.7981 5.88481 15.4627 6.37708 13.3242C6.72246 11.8224 7.95008 10.7143 9.42854 10.549C12.9309 10.1577 16.4755 10.1557 20.0049 10.1577C23.5335 10.1557 27.0781 10.1577 30.5792 10.549C32.0585 10.7143 33.287 11.822 33.6323 13.3242C34.1246 15.4631 34.1205 17.7981 34.1205 20C34.1205 22.2019 34.1193 24.5369 33.627 26.6758Z" fill="white"/>
<path d="M16.52 24.6993C19.5211 23.1431 22.4961 21.6012 25.4984 20.0442C22.4871 18.4728 19.5129 16.9219 16.52 15.36C16.52 18.4839 16.52 21.5759 16.52 24.6993Z" fill="white"/>
</svg>
